<mxfile host="app.diagrams.net" modified="2020-09-14T16:13:14.386Z" agent="5.0 (X11; Linux x86_64) AppleWebKit/537.36 (KHTML, like Gecko) Chrome/85.0.4183.102 Safari/537.36" etag="xrzlB0TSahC7EpVzTaL3" version="13.6.9" type="github">
  <diagram id="C5RBs43oDa-KdzZeNtuy" name="Page-1">
    <mxGraphModel dx="1125" dy="645" grid="1" gridSize="10" guides="1" tooltips="1" connect="1" arrows="1" fold="1" page="1" pageScale="1" pageWidth="827" pageHeight="1169" math="0" shadow="0">
      <root>
        <mxCell id="WIyWlLk6GJQsqaUBKTNV-0" />
        <mxCell id="WIyWlLk6GJQsqaUBKTNV-1" parent="WIyWlLk6GJQsqaUBKTNV-0" />
        <mxCell id="68lFuTOirknGhlbdTPyb-0" value="&lt;font style=&quot;font-size: 11px&quot;&gt;Авторизуватись як адміністратор&lt;/font&gt;" style="shape=ellipse;html=1;strokeWidth=5;fontStyle=1;whiteSpace=wrap;align=center;perimeter=ellipsePerimeter;fillColor=#ffff88;strokeColor=#36393d;" vertex="1" parent="WIyWlLk6GJQsqaUBKTNV-1">
          <mxGeometry x="365" y="520" width="120" height="60" as="geometry" />
        </mxCell>
        <mxCell id="68lFuTOirknGhlbdTPyb-1" value="Administrator" style="shape=umlActor;html=1;verticalLabelPosition=bottom;verticalAlign=top;align=center;strokeWidth=3;" vertex="1" parent="WIyWlLk6GJQsqaUBKTNV-1">
          <mxGeometry x="410" y="420" width="30" height="60" as="geometry" />
        </mxCell>
        <mxCell id="68lFuTOirknGhlbdTPyb-2" value="&lt;span style=&quot;color: rgb(60 , 64 , 67) ; font-family: &amp;#34;roboto&amp;#34; , &amp;#34;arial&amp;#34; , sans-serif ; font-size: 14px ; letter-spacing: 0.2px&quot;&gt;Use-case-діаграма для адміністратора сервісу придбання квитків в кінотеатр.&lt;br/&gt;&lt;br/&gt;&lt;/span&gt;" style="text;html=1;align=center;verticalAlign=middle;resizable=0;points=[];autosize=1;" vertex="1" parent="WIyWlLk6GJQsqaUBKTNV-1">
          <mxGeometry x="149" y="10" width="530" height="40" as="geometry" />
        </mxCell>
        <mxCell id="68lFuTOirknGhlbdTPyb-7" value="Відредагувати фільми" style="shape=ellipse;html=1;strokeWidth=4;fontStyle=1;whiteSpace=wrap;align=center;perimeter=ellipsePerimeter;shadow=0;sketch=0;fillColor=#eeeeee;strokeColor=#36393d;" vertex="1" parent="WIyWlLk6GJQsqaUBKTNV-1">
          <mxGeometry x="530" y="600" width="120" height="60" as="geometry" />
        </mxCell>
        <mxCell id="68lFuTOirknGhlbdTPyb-10" value="Відредагувати інформацію про кінотеатр" style="shape=ellipse;html=1;strokeWidth=4;fontStyle=1;whiteSpace=wrap;align=center;perimeter=ellipsePerimeter;shadow=0;sketch=0;fillColor=#eeeeee;strokeColor=#36393d;" vertex="1" parent="WIyWlLk6GJQsqaUBKTNV-1">
          <mxGeometry x="180" y="240" width="150" height="90" as="geometry" />
        </mxCell>
        <mxCell id="68lFuTOirknGhlbdTPyb-12" value="Відредагувати меню сайту" style="shape=ellipse;html=1;strokeWidth=4;fontStyle=1;whiteSpace=wrap;align=center;perimeter=ellipsePerimeter;shadow=0;sketch=0;fillColor=#eeeeee;strokeColor=#36393d;" vertex="1" parent="WIyWlLk6GJQsqaUBKTNV-1">
          <mxGeometry x="500" y="360" width="120" height="60" as="geometry" />
        </mxCell>
        <mxCell id="68lFuTOirknGhlbdTPyb-14" value="Відредагувати Footer" style="shape=ellipse;html=1;strokeWidth=4;fontStyle=1;whiteSpace=wrap;align=center;perimeter=ellipsePerimeter;shadow=0;sketch=0;perimeterSpacing=0;fillColor=#eeeeee;strokeColor=#36393d;" vertex="1" parent="WIyWlLk6GJQsqaUBKTNV-1">
          <mxGeometry x="195" y="555" width="120" height="60" as="geometry" />
        </mxCell>
        <mxCell id="68lFuTOirknGhlbdTPyb-27" value="" style="edgeStyle=none;html=1;endArrow=none;verticalAlign=bottom;exitX=1;exitY=1;exitDx=0;exitDy=0;entryX=0.5;entryY=0.5;entryDx=0;entryDy=0;entryPerimeter=0;" edge="1" parent="WIyWlLk6GJQsqaUBKTNV-1" source="68lFuTOirknGhlbdTPyb-10" target="68lFuTOirknGhlbdTPyb-1">
          <mxGeometry width="160" relative="1" as="geometry">
            <mxPoint x="280" y="470" as="sourcePoint" />
            <mxPoint x="440" y="470" as="targetPoint" />
          </mxGeometry>
        </mxCell>
        <mxCell id="68lFuTOirknGhlbdTPyb-28" value="" style="edgeStyle=none;html=1;endArrow=none;verticalAlign=bottom;entryX=0;entryY=1;entryDx=0;entryDy=0;exitX=0.5;exitY=0.5;exitDx=0;exitDy=0;exitPerimeter=0;" edge="1" parent="WIyWlLk6GJQsqaUBKTNV-1" source="68lFuTOirknGhlbdTPyb-1" target="68lFuTOirknGhlbdTPyb-12">
          <mxGeometry width="160" relative="1" as="geometry">
            <mxPoint x="280" y="470" as="sourcePoint" />
            <mxPoint x="440" y="470" as="targetPoint" />
          </mxGeometry>
        </mxCell>
        <mxCell id="68lFuTOirknGhlbdTPyb-29" value="" style="edgeStyle=none;html=1;endArrow=none;verticalAlign=bottom;exitX=0.5;exitY=0;exitDx=0;exitDy=0;entryX=0.5;entryY=0.5;entryDx=0;entryDy=0;entryPerimeter=0;" edge="1" parent="WIyWlLk6GJQsqaUBKTNV-1" source="68lFuTOirknGhlbdTPyb-14" target="68lFuTOirknGhlbdTPyb-1">
          <mxGeometry width="160" relative="1" as="geometry">
            <mxPoint x="280" y="470" as="sourcePoint" />
            <mxPoint x="440" y="470" as="targetPoint" />
          </mxGeometry>
        </mxCell>
        <mxCell id="68lFuTOirknGhlbdTPyb-30" value="" style="edgeStyle=none;html=1;endArrow=none;verticalAlign=bottom;entryX=0.5;entryY=0;entryDx=0;entryDy=0;exitX=0.5;exitY=0.5;exitDx=0;exitDy=0;exitPerimeter=0;" edge="1" parent="WIyWlLk6GJQsqaUBKTNV-1" source="68lFuTOirknGhlbdTPyb-1" target="68lFuTOirknGhlbdTPyb-7">
          <mxGeometry width="160" relative="1" as="geometry">
            <mxPoint x="280" y="470" as="sourcePoint" />
            <mxPoint x="440" y="470" as="targetPoint" />
          </mxGeometry>
        </mxCell>
        <mxCell id="68lFuTOirknGhlbdTPyb-31" value="&amp;lt;&amp;lt;include&amp;gt;&amp;gt;" style="edgeStyle=none;html=1;endArrow=open;verticalAlign=bottom;dashed=1;labelBackgroundColor=none;exitX=1;exitY=0;exitDx=0;exitDy=0;entryX=0;entryY=1;entryDx=0;entryDy=0;" edge="1" parent="WIyWlLk6GJQsqaUBKTNV-1" source="68lFuTOirknGhlbdTPyb-14" target="68lFuTOirknGhlbdTPyb-0">
          <mxGeometry width="160" relative="1" as="geometry">
            <mxPoint x="325" y="620" as="sourcePoint" />
            <mxPoint x="485" y="620" as="targetPoint" />
          </mxGeometry>
        </mxCell>
        <mxCell id="68lFuTOirknGhlbdTPyb-32" value="&amp;lt;&amp;lt;include&amp;gt;&amp;gt;" style="edgeStyle=none;html=1;endArrow=open;verticalAlign=bottom;dashed=1;labelBackgroundColor=none;exitX=0.467;exitY=1.019;exitDx=0;exitDy=0;entryX=0;entryY=0.5;entryDx=0;entryDy=0;exitPerimeter=0;" edge="1" parent="WIyWlLk6GJQsqaUBKTNV-1" source="68lFuTOirknGhlbdTPyb-10" target="68lFuTOirknGhlbdTPyb-0">
          <mxGeometry width="160" relative="1" as="geometry">
            <mxPoint x="280" y="470" as="sourcePoint" />
            <mxPoint x="440" y="470" as="targetPoint" />
          </mxGeometry>
        </mxCell>
        <mxCell id="68lFuTOirknGhlbdTPyb-33" value="&amp;lt;&amp;lt;include&amp;gt;&amp;gt;" style="edgeStyle=none;html=1;endArrow=open;verticalAlign=bottom;dashed=1;labelBackgroundColor=none;exitX=0.5;exitY=1;exitDx=0;exitDy=0;entryX=1;entryY=0.5;entryDx=0;entryDy=0;" edge="1" parent="WIyWlLk6GJQsqaUBKTNV-1" source="68lFuTOirknGhlbdTPyb-12" target="68lFuTOirknGhlbdTPyb-0">
          <mxGeometry width="160" relative="1" as="geometry">
            <mxPoint x="280" y="470" as="sourcePoint" />
            <mxPoint x="440" y="470" as="targetPoint" />
          </mxGeometry>
        </mxCell>
        <mxCell id="68lFuTOirknGhlbdTPyb-35" value="&amp;lt;&amp;lt;include&amp;gt;&amp;gt;" style="edgeStyle=none;html=1;endArrow=open;verticalAlign=bottom;dashed=1;labelBackgroundColor=none;exitX=0;exitY=0;exitDx=0;exitDy=0;entryX=1;entryY=1;entryDx=0;entryDy=0;" edge="1" parent="WIyWlLk6GJQsqaUBKTNV-1" source="68lFuTOirknGhlbdTPyb-7" target="68lFuTOirknGhlbdTPyb-0">
          <mxGeometry width="160" relative="1" as="geometry">
            <mxPoint x="280" y="470" as="sourcePoint" />
            <mxPoint x="440" y="470" as="targetPoint" />
          </mxGeometry>
        </mxCell>
        <mxCell id="68lFuTOirknGhlbdTPyb-36" value="&lt;span style=&quot;font-weight: normal&quot;&gt;Змінити/Додати/Видалити &lt;/span&gt;Опис" style="shape=ellipse;html=1;strokeWidth=3;fontStyle=1;whiteSpace=wrap;align=center;perimeter=ellipsePerimeter;shadow=0;sketch=0;" vertex="1" parent="WIyWlLk6GJQsqaUBKTNV-1">
          <mxGeometry x="29" y="380" width="120" height="60" as="geometry" />
        </mxCell>
        <mxCell id="68lFuTOirknGhlbdTPyb-37" value="&lt;font style=&quot;font-size: 11px ; font-weight: normal&quot;&gt;Змінити/Додати/Видалити &lt;/font&gt;&lt;font style=&quot;font-size: 11px&quot;&gt;контакти у соц мережах&lt;/font&gt;" style="shape=ellipse;html=1;strokeWidth=3;fontStyle=1;whiteSpace=wrap;align=center;perimeter=ellipsePerimeter;shadow=0;sketch=0;" vertex="1" parent="WIyWlLk6GJQsqaUBKTNV-1">
          <mxGeometry x="20" y="280" width="120" height="60" as="geometry" />
        </mxCell>
        <mxCell id="68lFuTOirknGhlbdTPyb-38" value="&lt;span style=&quot;font-size: 11px ; font-weight: normal&quot;&gt;Змінити/Додати/Видалити &lt;/span&gt;&lt;span style=&quot;font-size: 11px&quot;&gt;номер телефону&lt;/span&gt;" style="shape=ellipse;html=1;strokeWidth=3;fontStyle=1;whiteSpace=wrap;align=center;perimeter=ellipsePerimeter;shadow=0;sketch=0;" vertex="1" parent="WIyWlLk6GJQsqaUBKTNV-1">
          <mxGeometry x="29" y="185" width="120" height="60" as="geometry" />
        </mxCell>
        <mxCell id="68lFuTOirknGhlbdTPyb-39" value="&lt;font style=&quot;font-size: 11px ; font-weight: normal&quot;&gt;Змінити/Додати/Видалити &lt;/font&gt;&lt;font style=&quot;font-size: 11px&quot;&gt;розташування кінотеатрів&lt;/font&gt;" style="shape=ellipse;html=1;strokeWidth=3;fontStyle=1;whiteSpace=wrap;align=center;perimeter=ellipsePerimeter;shadow=0;sketch=0;" vertex="1" parent="WIyWlLk6GJQsqaUBKTNV-1">
          <mxGeometry x="50" y="70" width="160" height="80" as="geometry" />
        </mxCell>
        <mxCell id="68lFuTOirknGhlbdTPyb-40" value="&lt;span style=&quot;font-size: 11px ; font-weight: normal&quot;&gt;Змінити/Додати/Видалити &lt;/span&gt;&lt;span style=&quot;font-size: 11px&quot;&gt;адресу електронної пошти&lt;/span&gt;" style="shape=ellipse;html=1;strokeWidth=3;fontStyle=1;whiteSpace=wrap;align=center;perimeter=ellipsePerimeter;shadow=0;sketch=0;" vertex="1" parent="WIyWlLk6GJQsqaUBKTNV-1">
          <mxGeometry x="220" y="60" width="130" height="70" as="geometry" />
        </mxCell>
        <mxCell id="68lFuTOirknGhlbdTPyb-46" value="&lt;span style=&quot;font-weight: normal&quot;&gt;Додати/Видалити/Змінити&amp;nbsp;&lt;/span&gt;пункт у меню" style="shape=ellipse;html=1;strokeWidth=3;fontStyle=1;whiteSpace=wrap;align=center;perimeter=ellipsePerimeter;shadow=0;sketch=0;fillColor=#f9f7ed;strokeColor=#36393d;" vertex="1" parent="WIyWlLk6GJQsqaUBKTNV-1">
          <mxGeometry x="400" y="210" width="120" height="80" as="geometry" />
        </mxCell>
        <mxCell id="68lFuTOirknGhlbdTPyb-49" value="&lt;span style=&quot;font-weight: normal&quot;&gt;Додати &lt;/span&gt;новий пункт" style="shape=ellipse;html=1;strokeWidth=3;fontStyle=1;whiteSpace=wrap;align=center;perimeter=ellipsePerimeter;shadow=0;sketch=0;" vertex="1" parent="WIyWlLk6GJQsqaUBKTNV-1">
          <mxGeometry x="370" y="80" width="110" height="60" as="geometry" />
        </mxCell>
        <mxCell id="68lFuTOirknGhlbdTPyb-53" value="Відредагувати клієнтську систему" style="shape=ellipse;html=1;strokeWidth=3;fontStyle=1;whiteSpace=wrap;align=center;perimeter=ellipsePerimeter;shadow=0;sketch=0;fillColor=#f9f7ed;strokeColor=#36393d;" vertex="1" parent="WIyWlLk6GJQsqaUBKTNV-1">
          <mxGeometry x="610" y="240" width="150" height="60" as="geometry" />
        </mxCell>
        <mxCell id="68lFuTOirknGhlbdTPyb-54" value="&amp;lt;&amp;lt;extend&amp;gt;&amp;gt;" style="edgeStyle=none;html=1;startArrow=open;endArrow=none;startSize=12;verticalAlign=bottom;dashed=1;labelBackgroundColor=none;exitX=0;exitY=1;exitDx=0;exitDy=0;entryX=1;entryY=0;entryDx=0;entryDy=0;" edge="1" parent="WIyWlLk6GJQsqaUBKTNV-1" source="68lFuTOirknGhlbdTPyb-10" target="68lFuTOirknGhlbdTPyb-36">
          <mxGeometry width="160" relative="1" as="geometry">
            <mxPoint x="280" y="410" as="sourcePoint" />
            <mxPoint x="440" y="410" as="targetPoint" />
          </mxGeometry>
        </mxCell>
        <mxCell id="68lFuTOirknGhlbdTPyb-55" value="&amp;lt;&amp;lt;extend&amp;gt;&amp;gt;" style="edgeStyle=none;html=1;startArrow=open;endArrow=none;startSize=12;verticalAlign=bottom;dashed=1;labelBackgroundColor=none;entryX=1;entryY=0.5;entryDx=0;entryDy=0;exitX=0;exitY=0.5;exitDx=0;exitDy=0;" edge="1" parent="WIyWlLk6GJQsqaUBKTNV-1" source="68lFuTOirknGhlbdTPyb-10" target="68lFuTOirknGhlbdTPyb-37">
          <mxGeometry width="160" relative="1" as="geometry">
            <mxPoint x="290" y="280" as="sourcePoint" />
            <mxPoint x="450" y="280" as="targetPoint" />
          </mxGeometry>
        </mxCell>
        <mxCell id="68lFuTOirknGhlbdTPyb-56" value="&amp;lt;&amp;lt;extend&amp;gt;&amp;gt;" style="edgeStyle=none;html=1;startArrow=open;endArrow=none;startSize=12;verticalAlign=bottom;dashed=1;labelBackgroundColor=none;entryX=1;entryY=1;entryDx=0;entryDy=0;exitX=0;exitY=0;exitDx=0;exitDy=0;" edge="1" parent="WIyWlLk6GJQsqaUBKTNV-1" source="68lFuTOirknGhlbdTPyb-10" target="68lFuTOirknGhlbdTPyb-38">
          <mxGeometry width="160" relative="1" as="geometry">
            <mxPoint x="290" y="280" as="sourcePoint" />
            <mxPoint x="450" y="280" as="targetPoint" />
          </mxGeometry>
        </mxCell>
        <mxCell id="68lFuTOirknGhlbdTPyb-57" value="&amp;lt;&amp;lt;extend&amp;gt;&amp;gt;" style="edgeStyle=none;html=1;startArrow=open;endArrow=none;startSize=12;verticalAlign=bottom;dashed=1;labelBackgroundColor=none;entryX=0.5;entryY=1;entryDx=0;entryDy=0;exitX=0.5;exitY=0;exitDx=0;exitDy=0;" edge="1" parent="WIyWlLk6GJQsqaUBKTNV-1" source="68lFuTOirknGhlbdTPyb-10" target="68lFuTOirknGhlbdTPyb-39">
          <mxGeometry width="160" relative="1" as="geometry">
            <mxPoint x="290" y="280" as="sourcePoint" />
            <mxPoint x="450" y="280" as="targetPoint" />
          </mxGeometry>
        </mxCell>
        <mxCell id="68lFuTOirknGhlbdTPyb-58" value="&amp;lt;&amp;lt;extend&amp;gt;&amp;gt;" style="edgeStyle=none;html=1;startArrow=open;endArrow=none;startSize=12;verticalAlign=bottom;dashed=1;labelBackgroundColor=none;entryX=0.462;entryY=1;entryDx=0;entryDy=0;entryPerimeter=0;exitX=1;exitY=0;exitDx=0;exitDy=0;" edge="1" parent="WIyWlLk6GJQsqaUBKTNV-1" source="68lFuTOirknGhlbdTPyb-10" target="68lFuTOirknGhlbdTPyb-40">
          <mxGeometry width="160" relative="1" as="geometry">
            <mxPoint x="290" y="280" as="sourcePoint" />
            <mxPoint x="450" y="280" as="targetPoint" />
          </mxGeometry>
        </mxCell>
        <mxCell id="68lFuTOirknGhlbdTPyb-59" value="&amp;lt;&amp;lt;extend&amp;gt;&amp;gt;" style="edgeStyle=none;html=1;startArrow=open;endArrow=none;startSize=12;verticalAlign=bottom;dashed=1;labelBackgroundColor=none;entryX=0;entryY=1;entryDx=0;entryDy=0;exitX=1;exitY=0.5;exitDx=0;exitDy=0;" edge="1" parent="WIyWlLk6GJQsqaUBKTNV-1" source="68lFuTOirknGhlbdTPyb-10" target="68lFuTOirknGhlbdTPyb-49">
          <mxGeometry width="160" relative="1" as="geometry">
            <mxPoint x="290" y="280" as="sourcePoint" />
            <mxPoint x="450" y="280" as="targetPoint" />
          </mxGeometry>
        </mxCell>
        <mxCell id="68lFuTOirknGhlbdTPyb-61" value="&amp;lt;&amp;lt;extend&amp;gt;&amp;gt;" style="edgeStyle=none;html=1;startArrow=open;endArrow=none;startSize=12;verticalAlign=bottom;dashed=1;labelBackgroundColor=none;entryX=0.5;entryY=1;entryDx=0;entryDy=0;exitX=0;exitY=0;exitDx=0;exitDy=0;" edge="1" parent="WIyWlLk6GJQsqaUBKTNV-1" source="68lFuTOirknGhlbdTPyb-12" target="68lFuTOirknGhlbdTPyb-46">
          <mxGeometry width="160" relative="1" as="geometry">
            <mxPoint x="290" y="330" as="sourcePoint" />
            <mxPoint x="450" y="330" as="targetPoint" />
          </mxGeometry>
        </mxCell>
        <mxCell id="68lFuTOirknGhlbdTPyb-62" value="&amp;lt;&amp;lt;extend&amp;gt;&amp;gt;" style="edgeStyle=none;html=1;startArrow=open;endArrow=none;startSize=12;verticalAlign=bottom;dashed=1;labelBackgroundColor=none;entryX=0;entryY=1;entryDx=0;entryDy=0;exitX=1;exitY=0;exitDx=0;exitDy=0;" edge="1" parent="WIyWlLk6GJQsqaUBKTNV-1" source="68lFuTOirknGhlbdTPyb-12" target="68lFuTOirknGhlbdTPyb-53">
          <mxGeometry width="160" relative="1" as="geometry">
            <mxPoint x="540" y="340" as="sourcePoint" />
            <mxPoint x="450" y="330" as="targetPoint" />
          </mxGeometry>
        </mxCell>
        <mxCell id="68lFuTOirknGhlbdTPyb-63" value="&lt;font style=&quot;font-size: 11px&quot;&gt;Відредагувати особистий кабінет клієнта&lt;/font&gt;" style="shape=ellipse;html=1;strokeWidth=3;fontStyle=1;whiteSpace=wrap;align=center;perimeter=ellipsePerimeter;shadow=0;sketch=0;" vertex="1" parent="WIyWlLk6GJQsqaUBKTNV-1">
          <mxGeometry x="559" y="60" width="120" height="60" as="geometry" />
        </mxCell>
        <mxCell id="68lFuTOirknGhlbdTPyb-64" value="&amp;lt;&amp;lt;extend&amp;gt;&amp;gt;" style="edgeStyle=none;html=1;startArrow=open;endArrow=none;startSize=12;verticalAlign=bottom;dashed=1;labelBackgroundColor=none;entryX=0.5;entryY=1;entryDx=0;entryDy=0;exitX=0.5;exitY=0;exitDx=0;exitDy=0;" edge="1" parent="WIyWlLk6GJQsqaUBKTNV-1" source="68lFuTOirknGhlbdTPyb-53" target="68lFuTOirknGhlbdTPyb-63">
          <mxGeometry width="160" relative="1" as="geometry">
            <mxPoint x="290" y="350" as="sourcePoint" />
            <mxPoint x="450" y="350" as="targetPoint" />
          </mxGeometry>
        </mxCell>
        <mxCell id="68lFuTOirknGhlbdTPyb-65" value="&lt;font style=&quot;font-size: 11px&quot;&gt;Відредагувати платіжну систему&lt;/font&gt;" style="shape=ellipse;html=1;strokeWidth=3;fontStyle=1;whiteSpace=wrap;align=center;perimeter=ellipsePerimeter;shadow=0;sketch=0;" vertex="1" parent="WIyWlLk6GJQsqaUBKTNV-1">
          <mxGeometry x="485" y="140" width="120" height="60" as="geometry" />
        </mxCell>
        <mxCell id="68lFuTOirknGhlbdTPyb-66" value="&amp;lt;&amp;lt;extend&amp;gt;&amp;gt;" style="edgeStyle=none;html=1;startArrow=open;endArrow=none;startSize=12;verticalAlign=bottom;dashed=1;labelBackgroundColor=none;entryX=0.5;entryY=1;entryDx=0;entryDy=0;exitX=0;exitY=0.5;exitDx=0;exitDy=0;" edge="1" parent="WIyWlLk6GJQsqaUBKTNV-1" target="68lFuTOirknGhlbdTPyb-65" source="68lFuTOirknGhlbdTPyb-53">
          <mxGeometry width="160" relative="1" as="geometry">
            <mxPoint x="678.996991411009" y="308.78679656440386" as="sourcePoint" />
            <mxPoint x="287.03" y="350" as="targetPoint" />
          </mxGeometry>
        </mxCell>
        <mxCell id="68lFuTOirknGhlbdTPyb-67" value="Відредагувати глобальний розклад сеансів" style="shape=ellipse;html=1;strokeWidth=3;fontStyle=1;whiteSpace=wrap;align=center;perimeter=ellipsePerimeter;shadow=0;sketch=0;fillColor=#f9f7ed;strokeColor=#36393d;" vertex="1" parent="WIyWlLk6GJQsqaUBKTNV-1">
          <mxGeometry x="680" y="370" width="130" height="80" as="geometry" />
        </mxCell>
        <mxCell id="68lFuTOirknGhlbdTPyb-68" value="&amp;lt;&amp;lt;extend&amp;gt;&amp;gt;" style="edgeStyle=none;html=1;startArrow=open;endArrow=none;startSize=12;verticalAlign=bottom;dashed=1;labelBackgroundColor=none;entryX=0;entryY=0.5;entryDx=0;entryDy=0;exitX=1;exitY=0.5;exitDx=0;exitDy=0;" edge="1" parent="WIyWlLk6GJQsqaUBKTNV-1" source="68lFuTOirknGhlbdTPyb-12" target="68lFuTOirknGhlbdTPyb-67">
          <mxGeometry width="160" relative="1" as="geometry">
            <mxPoint x="290" y="360" as="sourcePoint" />
            <mxPoint x="450" y="360" as="targetPoint" />
          </mxGeometry>
        </mxCell>
        <mxCell id="68lFuTOirknGhlbdTPyb-69" value="&lt;font style=&quot;font-size: 11px&quot;&gt;&lt;span style=&quot;font-weight: 400&quot;&gt;Змінити/Додати/Видалити&lt;/span&gt;&amp;nbsp;інформацію&lt;/font&gt;" style="shape=ellipse;html=1;strokeWidth=3;fontStyle=1;whiteSpace=wrap;align=center;perimeter=ellipsePerimeter;shadow=0;sketch=0;fillColor=#f9f7ed;strokeColor=#36393d;" vertex="1" parent="WIyWlLk6GJQsqaUBKTNV-1">
          <mxGeometry x="40" y="620" width="131" height="70" as="geometry" />
        </mxCell>
        <mxCell id="68lFuTOirknGhlbdTPyb-70" value="&lt;span style=&quot;font-size: 11px ; font-weight: 400&quot;&gt;Змінити/Додати/Видалити &lt;/span&gt;&lt;span style=&quot;font-size: 11px&quot;&gt;купони на знижку&lt;/span&gt;" style="shape=ellipse;html=1;strokeWidth=3;fontStyle=1;whiteSpace=wrap;align=center;perimeter=ellipsePerimeter;shadow=0;sketch=0;" vertex="1" parent="WIyWlLk6GJQsqaUBKTNV-1">
          <mxGeometry x="700" y="70" width="120" height="60" as="geometry" />
        </mxCell>
        <mxCell id="68lFuTOirknGhlbdTPyb-72" value="&amp;lt;&amp;lt;extend&amp;gt;&amp;gt;" style="edgeStyle=none;html=1;startArrow=open;endArrow=none;startSize=12;verticalAlign=bottom;dashed=1;labelBackgroundColor=none;entryX=0.5;entryY=1;entryDx=0;entryDy=0;exitX=1;exitY=0;exitDx=0;exitDy=0;" edge="1" parent="WIyWlLk6GJQsqaUBKTNV-1" source="68lFuTOirknGhlbdTPyb-53" target="68lFuTOirknGhlbdTPyb-70">
          <mxGeometry width="160" relative="1" as="geometry">
            <mxPoint x="290" y="320" as="sourcePoint" />
            <mxPoint x="450" y="320" as="targetPoint" />
          </mxGeometry>
        </mxCell>
        <mxCell id="68lFuTOirknGhlbdTPyb-73" value="&amp;lt;&amp;lt;extend&amp;gt;&amp;gt;" style="edgeStyle=none;html=1;startArrow=open;endArrow=none;startSize=12;verticalAlign=bottom;dashed=1;labelBackgroundColor=none;exitX=0;exitY=1;exitDx=0;exitDy=0;entryX=1;entryY=0;entryDx=0;entryDy=0;" edge="1" parent="WIyWlLk6GJQsqaUBKTNV-1" source="68lFuTOirknGhlbdTPyb-14" target="68lFuTOirknGhlbdTPyb-69">
          <mxGeometry width="160" relative="1" as="geometry">
            <mxPoint x="210" y="644.58" as="sourcePoint" />
            <mxPoint x="370" y="644.58" as="targetPoint" />
          </mxGeometry>
        </mxCell>
        <mxCell id="68lFuTOirknGhlbdTPyb-74" value="&amp;lt;&amp;lt;include&amp;gt;&amp;gt;" style="edgeStyle=none;html=1;endArrow=open;verticalAlign=bottom;dashed=1;labelBackgroundColor=none;exitX=0.5;exitY=0;exitDx=0;exitDy=0;" edge="1" parent="WIyWlLk6GJQsqaUBKTNV-1" source="68lFuTOirknGhlbdTPyb-69" target="68lFuTOirknGhlbdTPyb-75">
          <mxGeometry width="160" relative="1" as="geometry">
            <mxPoint x="60" y="520" as="sourcePoint" />
            <mxPoint x="80" y="560" as="targetPoint" />
          </mxGeometry>
        </mxCell>
        <mxCell id="68lFuTOirknGhlbdTPyb-75" value="Отримати інформацію" style="shape=ellipse;html=1;strokeWidth=3;fontStyle=1;whiteSpace=wrap;align=center;perimeter=ellipsePerimeter;" vertex="1" parent="WIyWlLk6GJQsqaUBKTNV-1">
          <mxGeometry x="29" y="500" width="120" height="60" as="geometry" />
        </mxCell>
        <mxCell id="68lFuTOirknGhlbdTPyb-76" value="Ця інформація лежить тут" style="shape=note;whiteSpace=wrap;html=1;size=14;verticalAlign=top;align=left;spacingTop=-6;shadow=0;sketch=0;strokeWidth=1;" vertex="1" parent="WIyWlLk6GJQsqaUBKTNV-1">
          <mxGeometry x="160" y="430" width="100" height="70" as="geometry" />
        </mxCell>
        <mxCell id="68lFuTOirknGhlbdTPyb-77" value="" style="endArrow=none;dashed=1;html=1;entryX=0;entryY=0.5;entryDx=0;entryDy=0;entryPerimeter=0;exitX=1;exitY=0;exitDx=0;exitDy=0;" edge="1" parent="WIyWlLk6GJQsqaUBKTNV-1" source="68lFuTOirknGhlbdTPyb-75" target="68lFuTOirknGhlbdTPyb-76">
          <mxGeometry width="50" height="50" relative="1" as="geometry">
            <mxPoint x="99" y="500" as="sourcePoint" />
            <mxPoint x="149" y="450" as="targetPoint" />
          </mxGeometry>
        </mxCell>
        <mxCell id="68lFuTOirknGhlbdTPyb-78" value="" style="endArrow=classic;html=1;exitX=0;exitY=0;exitDx=43;exitDy=0;exitPerimeter=0;entryX=0.322;entryY=1.009;entryDx=0;entryDy=0;entryPerimeter=0;" edge="1" parent="WIyWlLk6GJQsqaUBKTNV-1" source="68lFuTOirknGhlbdTPyb-76" target="68lFuTOirknGhlbdTPyb-10">
          <mxGeometry width="50" height="50" relative="1" as="geometry">
            <mxPoint x="171" y="400" as="sourcePoint" />
            <mxPoint x="221" y="350" as="targetPoint" />
          </mxGeometry>
        </mxCell>
        <mxCell id="68lFuTOirknGhlbdTPyb-79" value="&lt;span style=&quot;font-size: 11px ; font-weight: 400&quot;&gt;Змінити/Додати/Видалити &lt;/span&gt;&lt;span style=&quot;font-size: 11px&quot;&gt;фільм&lt;/span&gt;" style="shape=ellipse;html=1;strokeWidth=3;fontStyle=1;whiteSpace=wrap;align=center;perimeter=ellipsePerimeter;shadow=0;sketch=0;fillColor=#f9f7ed;strokeColor=#36393d;" vertex="1" parent="WIyWlLk6GJQsqaUBKTNV-1">
          <mxGeometry x="365" y="660" width="120" height="60" as="geometry" />
        </mxCell>
        <mxCell id="68lFuTOirknGhlbdTPyb-81" value="&amp;lt;&amp;lt;extend&amp;gt;&amp;gt;" style="edgeStyle=none;html=1;startArrow=open;endArrow=none;startSize=12;verticalAlign=bottom;dashed=1;labelBackgroundColor=none;exitX=0;exitY=1;exitDx=0;exitDy=0;entryX=1;entryY=0;entryDx=0;entryDy=0;" edge="1" parent="WIyWlLk6GJQsqaUBKTNV-1" source="68lFuTOirknGhlbdTPyb-7" target="68lFuTOirknGhlbdTPyb-79">
          <mxGeometry width="160" relative="1" as="geometry">
            <mxPoint x="370" y="690" as="sourcePoint" />
            <mxPoint x="530" y="690" as="targetPoint" />
          </mxGeometry>
        </mxCell>
        <mxCell id="68lFuTOirknGhlbdTPyb-84" value="&lt;span style=&quot;font-size: 11px ; font-weight: 400&quot;&gt;Змінити/Додати/Видалити &lt;/span&gt;&lt;span style=&quot;font-size: 11px&quot;&gt;сеанс&lt;/span&gt;" style="shape=ellipse;html=1;strokeWidth=3;fontStyle=1;whiteSpace=wrap;align=center;perimeter=ellipsePerimeter;shadow=0;sketch=0;" vertex="1" parent="WIyWlLk6GJQsqaUBKTNV-1">
          <mxGeometry x="370" y="770" width="120" height="60" as="geometry" />
        </mxCell>
        <mxCell id="68lFuTOirknGhlbdTPyb-85" value="&amp;lt;&amp;lt;extend&amp;gt;&amp;gt;" style="edgeStyle=none;html=1;startArrow=open;endArrow=none;startSize=12;verticalAlign=bottom;dashed=1;labelBackgroundColor=none;entryX=0.5;entryY=0;entryDx=0;entryDy=0;exitX=0.5;exitY=1;exitDx=0;exitDy=0;" edge="1" parent="WIyWlLk6GJQsqaUBKTNV-1" source="68lFuTOirknGhlbdTPyb-79" target="68lFuTOirknGhlbdTPyb-84">
          <mxGeometry width="160" relative="1" as="geometry">
            <mxPoint x="320" y="700" as="sourcePoint" />
            <mxPoint x="480" y="700" as="targetPoint" />
          </mxGeometry>
        </mxCell>
        <mxCell id="68lFuTOirknGhlbdTPyb-86" value="&lt;span style=&quot;font-size: 11px ; font-weight: 400&quot;&gt;Змінити/Додати/Видалити &lt;/span&gt;&lt;span style=&quot;font-size: 11px&quot;&gt;інформацію про фільм&lt;/span&gt;" style="shape=ellipse;html=1;strokeWidth=3;fontStyle=1;whiteSpace=wrap;align=center;perimeter=ellipsePerimeter;shadow=0;sketch=0;" vertex="1" parent="WIyWlLk6GJQsqaUBKTNV-1">
          <mxGeometry x="171" y="730" width="129" height="60" as="geometry" />
        </mxCell>
        <mxCell id="68lFuTOirknGhlbdTPyb-87" value="&amp;lt;&amp;lt;extend&amp;gt;&amp;gt;" style="edgeStyle=none;html=1;startArrow=open;endArrow=none;startSize=12;verticalAlign=bottom;dashed=1;labelBackgroundColor=none;entryX=0.5;entryY=0;entryDx=0;entryDy=0;exitX=0;exitY=0.5;exitDx=0;exitDy=0;" edge="1" parent="WIyWlLk6GJQsqaUBKTNV-1" source="68lFuTOirknGhlbdTPyb-79" target="68lFuTOirknGhlbdTPyb-86">
          <mxGeometry width="160" relative="1" as="geometry">
            <mxPoint x="320" y="680" as="sourcePoint" />
            <mxPoint x="480" y="680" as="targetPoint" />
          </mxGeometry>
        </mxCell>
        <mxCell id="68lFuTOirknGhlbdTPyb-88" value="&lt;span style=&quot;font-size: 11px ; font-weight: 400&quot;&gt;Змінити/Додати/Видалити &lt;/span&gt;&lt;span style=&quot;font-size: 11px&quot;&gt;інформацію про зал&lt;/span&gt;" style="shape=ellipse;html=1;strokeWidth=3;fontStyle=1;whiteSpace=wrap;align=center;perimeter=ellipsePerimeter;shadow=0;sketch=0;" vertex="1" parent="WIyWlLk6GJQsqaUBKTNV-1">
          <mxGeometry x="510" y="875" width="130" height="70" as="geometry" />
        </mxCell>
        <mxCell id="68lFuTOirknGhlbdTPyb-89" value="&amp;lt;&amp;lt;extend&amp;gt;&amp;gt;" style="edgeStyle=none;html=1;startArrow=open;endArrow=none;startSize=12;verticalAlign=bottom;dashed=1;labelBackgroundColor=none;exitX=0.5;exitY=1;exitDx=0;exitDy=0;entryX=0;entryY=0;entryDx=0;entryDy=0;" edge="1" parent="WIyWlLk6GJQsqaUBKTNV-1" source="68lFuTOirknGhlbdTPyb-84" target="68lFuTOirknGhlbdTPyb-88">
          <mxGeometry width="160" relative="1" as="geometry">
            <mxPoint x="320" y="880" as="sourcePoint" />
            <mxPoint x="480" y="880" as="targetPoint" />
          </mxGeometry>
        </mxCell>
        <mxCell id="68lFuTOirknGhlbdTPyb-93" value="ВІдредагувати інформацію про ціну" style="shape=ellipse;html=1;strokeWidth=3;fontStyle=1;whiteSpace=wrap;align=center;perimeter=ellipsePerimeter;shadow=0;sketch=0;" vertex="1" parent="WIyWlLk6GJQsqaUBKTNV-1">
          <mxGeometry x="260" y="900" width="150" height="60" as="geometry" />
        </mxCell>
        <mxCell id="68lFuTOirknGhlbdTPyb-94" value="&amp;lt;&amp;lt;extend&amp;gt;&amp;gt;" style="edgeStyle=none;html=1;startArrow=open;endArrow=none;startSize=12;verticalAlign=bottom;dashed=1;labelBackgroundColor=none;exitX=0;exitY=1;exitDx=0;exitDy=0;entryX=0.5;entryY=0;entryDx=0;entryDy=0;" edge="1" parent="WIyWlLk6GJQsqaUBKTNV-1" source="68lFuTOirknGhlbdTPyb-84" target="68lFuTOirknGhlbdTPyb-93">
          <mxGeometry width="160" relative="1" as="geometry">
            <mxPoint x="130" y="950" as="sourcePoint" />
            <mxPoint x="290" y="950" as="targetPoint" />
          </mxGeometry>
        </mxCell>
        <mxCell id="68lFuTOirknGhlbdTPyb-96" value="" style="endArrow=none;dashed=1;html=1;entryX=0.5;entryY=1;entryDx=0;entryDy=0;entryPerimeter=0;exitX=0.5;exitY=0;exitDx=0;exitDy=0;" edge="1" parent="WIyWlLk6GJQsqaUBKTNV-1" source="68lFuTOirknGhlbdTPyb-88" target="68lFuTOirknGhlbdTPyb-97">
          <mxGeometry width="50" height="50" relative="1" as="geometry">
            <mxPoint x="604.7164068711952" y="803.7867965644025" as="sourcePoint" />
            <mxPoint x="609.0000000000002" y="790" as="targetPoint" />
          </mxGeometry>
        </mxCell>
        <mxCell id="68lFuTOirknGhlbdTPyb-97" value="Перевірити чи вільний зал" style="shape=note;whiteSpace=wrap;html=1;size=14;verticalAlign=top;align=left;spacingTop=-6;shadow=0;sketch=0;strokeWidth=1;" vertex="1" parent="WIyWlLk6GJQsqaUBKTNV-1">
          <mxGeometry x="600" y="730" width="100" height="70" as="geometry" />
        </mxCell>
      </root>
    </mxGraphModel>
  </diagram>
</mxfile>
